<?xml version="1.0" standalone="no"?>
<!DOCTYPE svg PUBLIC "-//W3C//DTD SVG 20010904//EN"
 "http://www.w3.org/TR/2001/REC-SVG-20010904/DTD/svg10.dtd">
<svg version="1.0" xmlns="http://www.w3.org/2000/svg"
 width="512.000000pt" height="512.000000pt" viewBox="0 0 512.000000 512.000000"
 preserveAspectRatio="xMidYMid meet">

<g transform="translate(0.000000,512.000000) scale(0.100000,-0.100000)"
fill="#000000" stroke="none">
<path d="M1867 5106 c-21 -8 -46 -20 -55 -28 -9 -8 -119 -106 -245 -217 -128
-115 -233 -201 -240 -197 -6 3 -90 75 -186 160 -148 132 -181 156 -229 172
-108 34 -221 -13 -274 -115 l-28 -53 0 -2268 0 -2268 28 -52 c34 -65 89 -106
164 -122 102 -21 135 -4 345 182 100 88 185 160 188 160 4 0 115 -96 247 -214
253 -226 283 -246 372 -246 74 0 131 39 371 254 126 113 232 206 235 206 3 0
109 -93 235 -206 127 -113 248 -215 270 -227 51 -27 164 -30 211 -5 17 9 137
112 267 228 131 116 241 210 246 208 5 -2 89 -74 187 -161 155 -137 186 -160
234 -174 108 -32 220 16 272 116 l28 53 0 2270 c0 2252 0 2269 -20 2308 -42
83 -130 140 -215 140 -75 0 -118 -27 -303 -190 -100 -88 -184 -160 -187 -160
-4 0 -115 96 -247 214 -253 226 -283 246 -372 246 -74 0 -131 -39 -371 -254
-126 -113 -232 -206 -235 -206 -3 0 -109 93 -235 206 -127 113 -248 214 -269
226 -51 26 -139 33 -189 14z m336 -454 c126 -112 244 -210 264 -219 44 -18
127 -20 177 -3 24 8 121 87 283 231 l246 219 76 -69 c441 -395 440 -394 537
-393 30 0 71 9 96 20 24 11 120 88 213 171 146 131 170 149 172 129 5 -53 8
-4378 3 -4378 -3 0 -81 68 -175 151 -93 84 -189 161 -213 171 -57 26 -136 26
-193 1 -39 -18 -128 -93 -435 -370 l-81 -73 -246 219 c-258 229 -279 243 -367
243 -88 0 -109 -14 -367 -243 l-246 -219 -76 69 c-441 395 -440 394 -537 393
-30 0 -71 -9 -96 -20 -24 -11 -119 -88 -213 -170 -93 -83 -170 -150 -171 -149
-6 8 -14 4397 -7 4397 4 0 85 -68 178 -151 94 -84 189 -161 213 -171 54 -24
134 -26 189 -3 26 10 129 95 280 230 194 173 241 211 253 201 8 -6 117 -102
243 -214z"/>
<path d="M1373 3384 c-89 -44 -87 -172 4 -210 26 -11 151 -14 651 -14 l619 0
34 23 c67 45 70 143 6 191 -28 21 -36 21 -655 23 -556 3 -631 1 -659 -13z"/>
<path d="M1375 2666 c-90 -39 -89 -174 2 -212 48 -21 2318 -21 2366 0 92 38
92 174 0 212 -47 20 -2323 20 -2368 0z"/>
<path d="M1373 1945 c-61 -26 -86 -111 -49 -167 40 -61 -26 -58 1236 -58 1262
0 1196 -3 1236 58 22 33 21 94 0 128 -38 56 14 54 -1238 54 -958 -1 -1158 -3
-1185 -15z"/>
</g>
</svg>
