<?xml version="1.0" standalone="no"?>
<!DOCTYPE svg PUBLIC "-//W3C//DTD SVG 20010904//EN"
 "http://www.w3.org/TR/2001/REC-SVG-20010904/DTD/svg10.dtd">
<svg version="1.0" xmlns="http://www.w3.org/2000/svg"
 width="512.000000pt" height="512.000000pt" viewBox="0 0 512.000000 512.000000"
 preserveAspectRatio="xMidYMid meet">

<g transform="translate(0.000000,512.000000) scale(0.100000,-0.100000)"
fill="#000000" stroke="none">
<path d="M1795 5109 c-156 -36 -283 -134 -354 -276 l-20 -41 -308 -4 c-258 -4
-317 -8 -362 -22 -174 -56 -302 -192 -345 -367 -14 -59 -16 -254 -16 -2010 0
-1690 2 -1952 15 -2002 48 -183 189 -324 372 -372 86 -23 3480 -23 3566 0 183
48 324 189 372 372 13 50 15 312 15 2002 0 1756 -2 1951 -16 2010 -43 175
-171 311 -345 367 -45 14 -104 18 -362 22 l-308 4 -20 41 c-60 118 -167 215
-289 259 l-65 23 -745 2 c-421 1 -762 -3 -785 -8z m1522 -351 c59 -39 73 -77
73 -202 l0 -106 -830 0 -830 0 0 106 c0 77 4 115 16 140 19 39 62 74 108 85
17 4 344 7 727 6 l695 -2 41 -27z m-1927 -405 c0 -121 20 -171 84 -208 l43
-25 1043 0 1043 0 43 25 c64 37 84 87 84 208 l0 97 273 0 c258 0 274 -1 306
-21 46 -28 68 -56 80 -106 14 -53 15 -3799 1 -3857 -11 -49 -37 -85 -81 -111
-34 -20 -52 -20 -1749 -20 -1697 0 -1715 0 -1749 20 -44 26 -70 62 -81 111
-14 58 -13 3804 1 3857 12 50 34 78 80 106 32 20 48 21 307 21 l272 0 0 -97z"/>
<path d="M1148 3430 c-59 -31 -83 -74 -83 -147 0 -69 17 -101 76 -141 28 -20
44 -23 92 -20 92 7 148 61 154 150 5 71 -25 124 -87 156 -54 27 -103 28 -152
2z"/>
<path d="M1830 3439 c-123 -49 -135 -233 -20 -298 l38 -21 1049 0 1050 0 33
23 c58 39 75 71 75 140 0 74 -25 116 -85 147 -38 20 -62 20 -1077 19 -665 0
-1047 -4 -1063 -10z"/>
<path d="M1150 2428 c-168 -85 -75 -346 109 -307 148 31 176 235 41 306 -54
29 -94 29 -150 1z"/>
<path d="M1820 2428 c-67 -34 -93 -79 -88 -153 4 -72 29 -114 85 -141 36 -18
84 -19 1033 -22 547 -2 1018 0 1047 3 94 11 154 70 160 157 5 71 -25 124 -87
156 l-44 22 -1031 0 -1031 0 -44 -22z"/>
<path d="M1185 1441 c-105 -25 -157 -147 -103 -243 31 -55 77 -81 144 -81 40
0 63 6 89 24 41 28 75 91 75 139 0 104 -104 185 -205 161z"/>
<path d="M1835 1435 c-129 -46 -142 -237 -22 -303 30 -16 104 -17 1082 -17
l1050 0 35 22 c104 65 104 221 0 286 l-35 22 -1035 2 c-873 2 -1041 0 -1075
-12z"/>
</g>
</svg>
