<svg xmlns="http://www.w3.org/2000/svg" xmlns:xlink="http://www.w3.org/1999/xlink" version="1.1" x="0px" y="0px" viewBox="0 0 32 40" style="enable-background:new 0 0 32 32;" xml:space="preserve"><g><g><path d="M26.546875,30.9702454H5.453125c-0.3881836,0-0.703125-0.3149414-0.703125-0.703125V5.4828796    c0-0.3881836,0.3149414-0.703125,0.703125-0.703125h6.1230469c0.3881836,0,0.703125,0.3149414,0.703125,0.703125    s-0.3149414,0.703125-0.703125,0.703125c-0.6463623,0-1.171875,0.5255127-1.171875,1.171875s0.5255127,1.171875,1.171875,1.171875    h8.8476563c0.6463623,0,1.171875-0.5255127,1.171875-1.171875s-0.5255127-1.171875-1.171875-1.171875    c-0.3881836,0-0.703125-0.3149414-0.703125-0.703125s0.3149414-0.703125,0.703125-0.703125h6.1230469    c0.3881836,0,0.703125,0.3149414,0.703125,0.703125v24.7842407C27.25,30.655304,26.9350586,30.9702454,26.546875,30.9702454z     M6.15625,29.5639954h19.6875V6.1860046h-3.1237793c0.1803589,0.3515625,0.2819824,0.7502747,0.2819824,1.171875    c0,1.4213562-1.156311,2.578125-2.578125,2.578125h-8.8476563c-1.421814,0-2.578125-1.1567688-2.578125-2.578125    c0-0.4216003,0.1016235-0.8203125,0.2819824-1.171875H6.15625V29.5639954z"/></g><g><path d="M20.4238281,9.9360046h-8.8476563c-1.421814,0-2.578125-1.156311-2.578125-2.578125s1.156311-2.578125,2.578125-2.578125    h0.4101563v-1.40625c0-1.2922668,1.0514832-2.34375,2.34375-2.34375h3.3398438c1.2922668,0,2.34375,1.0514832,2.34375,2.34375    v1.40625h0.4101563c1.421814,0,2.578125,1.156311,2.578125,2.578125S21.8456421,9.9360046,20.4238281,9.9360046z     M11.5761719,6.1860046c-0.6463623,0-1.171875,0.5255127-1.171875,1.171875s0.5255127,1.171875,1.171875,1.171875h8.8476563    c0.6463623,0,1.171875-0.5255127,1.171875-1.171875s-0.5255127-1.171875-1.171875-1.171875h-1.1132813    c-0.3881836,0-0.703125-0.3149414-0.703125-0.703125v-2.109375c0-0.5168152-0.4206848-0.9375-0.9375-0.9375h-3.3398438    c-0.5168152,0-0.9375,0.4206848-0.9375,0.9375v2.109375c0,0.3881836-0.3149414,0.703125-0.703125,0.703125H11.5761719z"/></g><g><g><path d="M16,21.8552551c-0.3881836,0-0.703125-0.3149414-0.703125-0.703125V15.0625     c0-0.3881836,0.3149414-0.703125,0.703125-0.703125s0.703125,0.3149414,0.703125,0.703125v6.0896301     C16.703125,21.5403137,16.3881836,21.8552551,16,21.8552551z"/></g><g><path d="M16,25.140625c-0.3881836,0-0.703125-0.3149414-0.703125-0.703125v-0.3662109     c0-0.3881836,0.3149414-0.703125,0.703125-0.703125s0.703125,0.3149414,0.703125,0.703125V24.4375     C16.703125,24.8256836,16.3881836,25.140625,16,25.140625z"/></g></g></g><text x="0" y="47" fill="#000000" font-size="5px" font-weight="bold" font-family="'Helvetica Neue', Helvetica, Arial-Unicode, Arial, Sans-serif">Created by Royyan Wijaya</text><text x="0" y="52" fill="#000000" font-size="5px" font-weight="bold" font-family="'Helvetica Neue', Helvetica, Arial-Unicode, Arial, Sans-serif">from the Noun Project</text></svg>